<?xml version="1.0" encoding="UTF-8"?>
<svg xmlns="http://www.w3.org/2000/svg" xmlns:xlink="http://www.w3.org/1999/xlink" width="1000px" height="302px" viewBox="0 0 1000 302"><!-- Generator: Sketch 59 (86127) - https://sketch.com --><title>Amazon_logo</title><desc>Created with Sketch.</desc><g id="Page-1" stroke="none" stroke-width="1" fill="none" fill-rule="evenodd"><g id="Amazon_logo"><path d="M620.38044,235.66818 C562.26875,278.5011 478.03939,301.35401 405.51952,301.35401 C303.83491,301.35401 212.29269,263.74464 143.03746,201.19294 C137.5963,196.27409 142.47156,189.57059 149.00099,193.40115 C223.74089,236.88701 316.15375,263.04816 411.61364,263.04816 C475.99352,263.04816 546.8158,249.72815 611.93573,222.08703 C621.77336,217.90818 630.00041,228.52937 620.38044,235.66818" id="path8" fill="#FF9900"/><path d="M644.53924,208.02705 C637.13922,198.53765 595.4381,203.54352 576.72049,205.76352 C571.01812,206.46 570.14757,201.49764 575.284,197.92821 C608.49691,174.55295 662.99569,181.30001 669.35097,189.13528 C675.70624,197.01411 667.69686,251.64348 636.48629,277.71754 C631.69806,281.72223 627.12748,279.58932 629.26043,274.27872 C636.26865,256.77991 651.98277,217.55998 644.53924,208.02705" id="path10" fill="#FF9900"/><path d="M578.02637,32.908411 L578.02637,10.186089 C578.02637,6.7472711 580.63813,4.4402171 583.77225,4.4402171 L685.50034,4.4402171 C688.76506,4.4402171 691.37682,6.7908061 691.37682,10.186089 L691.37682,29.643715 C691.33332,32.908411 688.59094,37.174288 683.71563,43.921337 L631.00159,119.18361 C650.58982,118.70482 671.26627,121.62125 689.02625,131.63301 C693.03094,133.89653 694.11918,137.20476 694.42388,140.46949 L694.42388,164.71535 C694.42388,168.02357 690.76741,171.89765 686.93683,169.89532 C655.63921,153.48474 614.06867,151.70004 579.46283,170.06945 C575.93696,171.98475 572.23697,168.15417 572.23697,164.84592 L572.23697,141.8189 C572.23697,138.11891 572.28047,131.80712 575.98046,126.19184 L637.05217,38.610763 L583.90283,38.610763 C580.63813,38.610763 578.02637,36.303728 578.02637,32.908411" id="path12" fill="#000000"/><path d="M206.93856,174.68354 L175.98919,174.68354 C173.02921,174.46592 170.67862,172.24592 170.46096,169.41648 L170.46096,10.577884 C170.46096,7.4002401 173.11626,4.8755171 176.42448,4.8755171 L205.28444,4.8755171 C208.288,5.0060171 210.68208,7.3131541 210.89975,10.186089 L210.89975,30.949621 L211.46563,30.949621 C218.9962,10.88256 233.14323,1.5237471 252.2091,1.5237471 C271.57966,1.5237471 283.68083,10.88256 292.3867,30.949621 C299.87375,10.88256 316.89372,1.5237471 335.13254,1.5237471 C348.10429,1.5237471 362.29486,6.8778581 370.95721,18.891963 C380.75131,32.255475 378.74895,51.669567 378.74895,68.689569 L378.70545,168.93769 C378.70545,172.11532 376.05015,174.68354 372.74193,174.68354 L341.83606,174.68354 C338.7455,174.46592 336.26433,171.98475 336.26433,168.93769 L336.26433,84.751894 C336.26433,78.048379 336.8737,61.333102 335.39373,54.977797 C333.08668,44.313133 326.16552,41.309577 317.19844,41.309577 C309.71139,41.309577 301.87612,46.315457 298.69847,54.324878 C295.52082,62.334281 295.82553,75.741295 295.82553,84.751894 L295.82553,168.93769 C295.82553,172.11532 293.17024,174.68354 289.862,174.68354 L258.95618,174.68354 C255.82206,174.46592 253.38441,171.98475 253.38441,168.93769 L253.34091,84.751894 C253.34091,67.035453 256.25734,40.961349 234.27505,40.961349 C212.03152,40.961349 212.90211,66.382485 212.90211,84.751894 L212.90211,168.93769 C212.90211,172.11532 210.24681,174.68354 206.93859,174.68354" id="path14" fill="#000000"/><path d="M778.9579,1.5237471 C824.88138,1.5237471 849.73662,40.961349 849.73662,91.107182 C849.73662,139.55535 822.26957,177.99177 778.9579,177.99177 C733.86147,177.99177 709.3109,138.55417 709.3109,89.409532 C709.3109,39.960169 734.16617,1.5237471 778.9579,1.5237471 M779.21906,33.953142 C756.40969,33.953142 754.973017,65.033077 754.973017,84.403667 C754.973017,103.81776 754.6685,145.2577 778.9579,145.2577 C802.94257,145.2577 804.07435,111.82718 804.07435,91.455393 C804.07435,78.048379 803.50846,62.029572 799.46021,49.318979 C795.97786,38.262553 789.05672,33.953142 779.21906,33.953142" id="path16" fill="#000000"/><path d="M909.2848,174.68354 L878.46602,174.68354 C875.37542,174.46592 872.89425,171.98475 872.89425,168.93769 L872.85075,10.055502 C873.11193,7.1390331 875.68018,4.8755171 878.81428,4.8755171 L907.50015,4.8755171 C910.19894,5.0060171 912.41894,6.8343401 913.02838,9.3155141 L913.02838,33.604881 L913.59423,33.604881 C922.2566,11.88374 934.40125,1.5237471 955.77417,1.5237471 C969.66004,1.5237471 983.19768,6.5296311 991.90355,20.241371 C1000,32.951945 1000,54.324878 1000,69.690715 L1000,169.67769 C999.65178,172.46354 997.08353,174.68354 994.03651,174.68354 L963.00006,174.68354 C960.17063,174.46592 957.82004,172.37651 957.51537,169.67769 L957.51537,83.402489 C957.51537,66.034274 959.51771,40.613105 938.14478,40.613105 C930.61422,40.613105 923.69304,45.662538 920.25422,53.323681 C915.9013,63.030753 915.33541,72.694271 915.33541,83.402489 L915.33541,168.93769 C915.29191,172.11532 912.59307,174.68354 909.28485,174.68354" id="path18" fill="#000000"/><path d="M496.93116,98.811876 C496.93116,110.8695 497.23586,120.92478 491.14175,131.63301 C486.22294,140.33891 478.38766,145.69301 469.72533,145.69301 C457.84181,145.69301 450.87711,136.63888 450.87711,123.27537 C450.87711,96.896587 474.51354,92.108363 496.93116,92.108363 L496.93116,98.811876 M528.14172,174.24825 C526.09586,176.07648 523.13583,176.20706 520.82879,174.98826 C510.55584,166.45651 508.68409,162.49535 503.06881,154.35536 C486.09235,171.68003 474.0347,176.86001 452.05238,176.86001 C425.97829,176.86001 405.73716,160.79767 405.73716,128.62951 C405.73716,103.51305 419.31834,86.406011 438.73243,78.048379 C455.53475,70.648362 478.99704,69.342505 496.93116,67.296628 L496.93116,63.291927 C496.93116,55.935442 497.49705,47.229568 493.14411,40.874314 C489.40059,35.171945 482.17469,32.821359 475.77589,32.821359 C463.97942,32.821359 453.48887,38.871938 450.92062,51.408392 C450.39827,54.19429 448.35241,56.936639 445.52297,57.067226 L415.53126,53.846031 C413.00654,53.28018 410.17715,51.23427 410.91715,47.360188 C417.79479,10.969646 450.703,0.00021708008 480.12882,0.00021708008 C495.18999,0.00021708008 514.86525,4.0049271 526.74877,15.409611 C541.80991,29.469593 540.37346,48.230748 540.37346,68.646035 L540.37346,116.87656 C540.37346,131.37186 546.38051,137.72711 552.03932,145.56243 C553.99817,148.34828 554.43346,151.70004 551.90861,153.78945 C545.59686,159.05653 534.36627,168.85063 528.18511,174.33532 L528.14161,174.24812" id="path28" fill="#000000"/><path d="M91.194013,98.811876 C91.194013,110.8695 91.498688,120.92478 85.404607,131.63301 C80.485762,140.33891 72.694014,145.69301 63.98814,145.69301 C52.104622,145.69301 45.183467,136.63888 45.183467,123.27537 C45.183467,96.896587 68.8199,92.108363 91.194013,92.108363 L91.194013,98.811876 M122.40455,174.24825 C120.35868,176.07648 117.39865,176.20706 115.0916,174.98826 C104.8187,166.45651 102.99044,162.49535 97.331628,154.35536 C80.355174,171.68003 68.341102,176.86001 46.315217,176.86001 C20.284648,176.86001 -2.141151e-06,160.79767 -2.141151e-06,128.62951 C-2.141151e-06,103.51305 13.624684,86.406011 32.995241,78.048379 C49.79757,70.648362 73.259897,69.342505 91.194013,67.296628 L91.194013,63.291927 C91.194013,55.935442 91.759897,47.229568 87.450486,40.874314 C83.663406,35.171945 76.437558,32.821359 70.082253,32.821359 C58.285822,32.821359 47.751694,38.871938 45.183467,51.408392 C44.661103,54.19429 42.615225,56.936639 39.82936,57.067226 L9.7941042,53.846031 C7.2693961,53.28018 4.4835138,51.23427 5.1799844,47.360188 C12.101156,10.969646 44.965811,0.00021708008 74.391681,0.00021708008 C89.452812,0.00021708008 109.12808,4.0049271 121.0116,15.409611 C136.07277,29.469593 134.63628,48.230748 134.63628,68.646035 L134.63628,116.87656 C134.63628,131.37186 140.64336,137.72711 146.30218,145.56243 C148.30452,148.34828 148.73981,151.70004 146.21508,153.78945 C139.90333,159.05653 128.67277,168.85063 122.49157,174.33532 L122.40457,174.24812" id="path30" fill="#000000"/></g></g></svg>